<?xml version="1.0" encoding="UTF-8"?>
<svg id="_图层_2" data-name="图层 2" xmlns="http://www.w3.org/2000/svg" viewBox="0 0 595.28 512.68">
  <defs>
    <style>
      .cls-1 {
        fill: #fe8f00;
      }

      .cls-2 {
        fill: #af3800;
      }

      .cls-3 {
        fill: #006400;
      }

      .cls-4 {
        fill: #31bd2b;
      }

      .cls-5 {
        fill: #ab3900;
      }

      .cls-6 {
        fill: #ffa63a;
      }

      .cls-7 {
        fill: #006401;
      }

      .cls-8 {
        fill: #d86909;
      }

      .cls-9 {
        fill: #ff9007;
      }

      .cls-10 {
        fill: #ff921a;
      }

      .cls-11 {
        fill: #007908;
      }

      .cls-12 {
        fill: #b35600;
      }

      .cls-13 {
        fill: #d96807;
      }

      .cls-14 {
        fill: #fda63a;
      }

      .cls-15 {
        fill: #30bd2a;
      }

      .cls-16 {
        fill: #006701;
      }

      .cls-17 {
        fill: #007000;
      }

      .cls-18 {
        fill: #ff9319;
      }

      .cls-19 {
        fill: #ffc478;
      }

      .cls-20 {
        fill: #da670c;
      }

      .cls-21 {
        fill: #ae3803;
      }

      .cls-22 {
        fill: #007a07;
      }

      .cls-23 {
        fill: #017808;
      }

      .cls-24 {
        fill: #d86a07;
      }

      .cls-25 {
        fill: #ff9218;
      }

      .cls-26 {
        fill: #ff8f00;
      }

      .cls-27 {
        fill: #005900;
      }

      .cls-28 {
        fill: #005601;
      }

      .cls-29 {
        fill: #d7690b;
      }

      .cls-30 {
        fill: #fdc57a;
      }

      .cls-31 {
        fill: #ac3900;
      }

      .cls-32 {
        fill: #25892a;
      }

      .cls-33 {
        fill: #005800;
      }

      .cls-34 {
        fill: #d96907;
      }

      .cls-35 {
        fill: #ab3901;
      }

      .cls-36 {
        fill: #005a01;
      }

      .cls-37 {
        fill: #ffa737;
      }

      .cls-38 {
        fill: #da6a03;
      }

      .cls-39 {
        fill: #099f02;
      }

      .cls-40 {
        fill: #189a16;
      }

      .cls-41 {
        fill: #fda536;
      }

      .cls-42 {
        fill: #ffa836;
      }

      .cls-43 {
        fill: #b45600;
      }

      .cls-44 {
        fill: #b55500;
      }

      .cls-45 {
        fill: #ad3900;
      }

      .cls-46 {
        fill: #288926;
      }

      .cls-47 {
        fill: #ff9414;
      }

      .cls-48 {
        fill: #007907;
      }

      .cls-49 {
        fill: #288a2b;
      }

      .cls-50 {
        fill: #ffa93a;
      }

      .cls-51 {
        fill: #ff9219;
      }

      .cls-52 {
        fill: #005200;
      }

      .cls-53 {
        fill: #d86b04;
      }

      .cls-54 {
        fill: #ff9317;
      }

      .cls-55 {
        fill: #fec57a;
      }

      .cls-56 {
        fill: #ff8e00;
      }

      .cls-57 {
        fill: #39ae39;
      }

      .cls-58 {
        fill: #014d02;
      }

      .cls-59 {
        fill: #ff9517;
      }

      .cls-60 {
        fill: #ffa739;
      }
    </style>
  </defs>
  <rect class="cls-5" x="42.52" y="469.96" width="42.52" height="42.72"/>
  <rect class="cls-25" y="427.23" width="42.52" height="42.72"/>
  <rect class="cls-45" x="85.04" y="469.96" width="42.52" height="42.72"/>
  <rect class="cls-31" x="127.56" y="469.96" width="42.52" height="42.72"/>
  <rect class="cls-60" x="42.52" y="427.23" width="42.52" height="42.72"/>
  <rect class="cls-53" x="85.04" y="427.23" width="42.52" height="42.72"/>
  <rect class="cls-43" x="127.56" y="427.23" width="42.52" height="42.72"/>
  <rect class="cls-45" x="170.08" y="427.23" width="42.52" height="42.72"/>
  <rect class="cls-45" x="212.6" y="427.23" width="42.52" height="42.72"/>
  <rect class="cls-2" x="255.12" y="427.23" width="42.52" height="42.72"/>
  <rect class="cls-59" x="42.52" y="384.51" width="42.52" height="42.72"/>
  <rect class="cls-41" x="85.04" y="384.51" width="42.52" height="42.72"/>
  <rect class="cls-1" x="127.56" y="384.51" width="42.52" height="42.72"/>
  <rect class="cls-56" x="170.08" y="384.51" width="42.52" height="42.72"/>
  <rect class="cls-8" x="212.6" y="384.51" width="42.52" height="42.72"/>
  <rect class="cls-12" x="255.12" y="384.51" width="42.52" height="42.72"/>
  <rect class="cls-20" x="42.52" y="341.79" width="42.52" height="42.72"/>
  <rect class="cls-10" x="85.04" y="341.79" width="42.52" height="42.72"/>
  <rect class="cls-14" x="127.56" y="341.79" width="42.52" height="42.72"/>
  <rect class="cls-6" x="170.08" y="341.79" width="42.52" height="42.72"/>
  <rect class="cls-9" x="212.6" y="341.79" width="42.52" height="42.72"/>
  <rect class="cls-29" x="255.12" y="341.79" width="42.52" height="42.72"/>
  <rect class="cls-24" x="85.04" y="299.06" width="42.52" height="42.72"/>
  <rect class="cls-54" x="127.56" y="299.06" width="42.52" height="42.72"/>
  <rect class="cls-30" x="170.08" y="299.06" width="42.52" height="42.72"/>
  <rect class="cls-42" x="212.6" y="299.06" width="42.52" height="42.72"/>
  <rect class="cls-56" x="255.12" y="299.06" width="42.52" height="42.72"/>
  <rect class="cls-38" x="297.64" y="299.06" width="42.52" height="42.72"/>
  <rect class="cls-51" x="127.56" y="256.34" width="42.52" height="42.72"/>
  <rect class="cls-37" x="170.08" y="256.34" width="42.52" height="42.72"/>
  <rect class="cls-55" x="212.6" y="256.34" width="42.52" height="42.72"/>
  <rect class="cls-26" x="255.12" y="256.34" width="42.52" height="42.72"/>
  <rect class="cls-26" x="297.64" y="256.34" width="42.52" height="42.72"/>
  <rect class="cls-13" x="340.16" y="256.34" width="42.52" height="42.72"/>
  <rect class="cls-47" x="170.08" y="213.62" width="42.52" height="42.72"/>
  <rect class="cls-50" x="212.6" y="213.62" width="42.52" height="42.72"/>
  <rect class="cls-19" x="255.12" y="213.62" width="42.52" height="42.72"/>
  <rect class="cls-43" x="297.64" y="213.62" width="42.52" height="42.72"/>
  <rect class="cls-7" x="340.16" y="213.62" width="42.52" height="42.72"/>
  <rect class="cls-3" x="382.68" y="213.62" width="42.52" height="42.72"/>
  <rect class="cls-18" x="212.6" y="170.89" width="42.52" height="42.72"/>
  <rect class="cls-51" x="255.12" y="170.89" width="42.52" height="42.72"/>
  <rect class="cls-32" x="297.64" y="170.89" width="42.52" height="42.72"/>
  <rect class="cls-40" x="340.16" y="170.89" width="42.52" height="42.72"/>
  <rect class="cls-49" x="382.68" y="170.89" width="42.52" height="42.72"/>
  <rect class="cls-17" x="425.2" y="170.89" width="42.52" height="42.72"/>
  <rect class="cls-22" x="297.64" y="128.17" width="42.52" height="42.72"/>
  <rect class="cls-46" x="340.16" y="128.17" width="42.52" height="42.72"/>
  <rect class="cls-15" x="382.68" y="128.17" width="42.52" height="42.72"/>
  <rect class="cls-22" x="425.2" y="128.17" width="42.52" height="42.72"/>
  <rect class="cls-39" x="467.72" y="128.17" width="42.52" height="42.72"/>
  <rect class="cls-17" x="510.24" y="128.17" width="42.52" height="42.72"/>
  <rect class="cls-23" x="382.68" y="85.45" width="42.52" height="42.72"/>
  <rect class="cls-57" x="425.2" y="85.45" width="42.52" height="42.72"/>
  <rect class="cls-48" x="467.72" y="85.45" width="42.52" height="42.72"/>
  <rect class="cls-11" x="510.24" y="85.45" width="42.52" height="42.72"/>
  <rect class="cls-36" x="552.76" y="85.45" width="42.52" height="42.72"/>
  <rect class="cls-45" x="297.64" y="384.51" width="42.52" height="42.72"/>
  <rect class="cls-44" x="297.64" y="341.79" width="42.52" height="42.72"/>
  <rect class="cls-21" x="340.16" y="341.79" width="42.52" height="42.72"/>
  <rect class="cls-34" x="340.16" y="299.06" width="42.52" height="42.72"/>
  <rect class="cls-35" x="382.68" y="299.06" width="42.52" height="42.72"/>
  <rect class="cls-45" x="382.68" y="256.34" width="42.52" height="42.72"/>
  <rect class="cls-52" x="425.2" y="213.62" width="42.52" height="42.72"/>
  <rect class="cls-52" x="467.72" y="213.62" width="42.52" height="42.72"/>
  <rect class="cls-17" x="510.24" y="213.62" width="42.52" height="42.72"/>
  <rect class="cls-4" x="467.72" y="42.72" width="42.52" height="42.72"/>
  <rect class="cls-33" x="510.24" y="170.89" width="42.52" height="42.72"/>
  <rect class="cls-11" x="467.72" y="170.89" width="42.52" height="42.72"/>
  <rect class="cls-58" x="552.76" y="256.34" width="42.52" height="42.72"/>
  <rect class="cls-27" x="552.76" y="213.62" width="42.52" height="42.72"/>
  <rect class="cls-16" x="510.24" y="42.72" width="42.52" height="42.72"/>
  <rect class="cls-28" x="510.24" width="42.52" height="42.72"/>
</svg>